<svg xmlns="http://www.w3.org/2000/svg" viewBox="0 0 1024 1024">
  <defs>
    <linearGradient id="bg" x1="168" x2="856" y1="128" y2="896" gradientUnits="userSpaceOnUse">
      <stop offset="0" stop-color="#2F6BFF"/>
      <stop offset="0.48" stop-color="#11A87B"/>
      <stop offset="1" stop-color="#F4B63F"/>
    </linearGradient>
    <linearGradient id="wave" x1="244" x2="780" y1="512" y2="512" gradientUnits="userSpaceOnUse">
      <stop offset="0" stop-color="#FFFFFF"/>
      <stop offset="1" stop-color="#F7FBFF"/>
    </linearGradient>
  </defs>
  <rect width="1024" height="1024" rx="232" fill="url(#bg)"/>
  <circle cx="512" cy="512" r="340" fill="#FFFFFF" opacity="0.14"/>
  <path
    d="M278 574V450c0-34 38-54 66-35l74 50c13 9 21 24 21 40v14c0 16-8 31-21 40l-74 50c-28 19-66-1-66-35Z"
    fill="url(#wave)"
  />
  <rect x="478" y="314" width="58" height="396" rx="29" fill="url(#wave)"/>
  <rect x="580" y="248" width="64" height="528" rx="32" fill="url(#wave)" opacity="0.92"/>
  <rect x="690" y="366" width="58" height="292" rx="29" fill="url(#wave)" opacity="0.82"/>
</svg>
